<?xml version="1.0" standalone="no"?>
<!DOCTYPE svg PUBLIC "-//W3C//DTD SVG 20010904//EN"
 "http://www.w3.org/TR/2001/REC-SVG-20010904/DTD/svg10.dtd">
<svg version="1.0" xmlns="http://www.w3.org/2000/svg"
 width="132.000000pt" height="132.000000pt" viewBox="0 0 132.000000 132.000000"
 preserveAspectRatio="xMidYMid meet">
<metadata>
Created by potrace 1.14, written by Peter Selinger 2001-2017
</metadata>
<g transform="translate(0.000000,132.000000) scale(0.100000,-0.100000)"
fill="#000000" stroke="none">
<path d="M505 1300 c-230 -60 -383 -200 -468 -424 -28 -75 -31 -90 -30 -211 0
-114 3 -140 27 -212 65 -199 227 -358 434 -424 95 -30 252 -34 350 -9 227 59
392 212 468 435 49 143 40 337 -23 475 -77 167 -219 295 -398 356 -106 36
-256 42 -360 14z m267 -121 c318 -66 509 -413 396 -719 -66 -177 -221 -308
-408 -344 -333 -64 -646 196 -642 535 2 145 56 274 162 380 127 129 314 185
492 148z"/>
<path d="M493 981 c-7 -5 -9 -42 -4 -81 1 -11 110 -14 112 -2 5 34 6 69 2 78
-4 11 -96 15 -110 5z"/>
<path d="M696 983 c-3 -4 -6 -26 -6 -50 l0 -43 61 0 60 0 -3 48 -3 47 -52 2
c-28 1 -54 -1 -57 -4z"/>
<path d="M889 900 c-1 -5 -2 -19 -3 -29 0 -11 -4 -22 -7 -25 -3 -3 -115 -6
-249 -6 -272 -1 -296 -5 -324 -65 -9 -18 -16 -56 -16 -84 l0 -51 60 0 c64 0
64 1 62 58 -1 19 4 22 37 22 l37 0 0 -216 c-1 -162 2 -218 11 -221 17 -7 103
27 104 41 1 6 2 97 3 201 l1 190 43 3 42 3 0 -222 0 -221 23 6 c13 3 40 12 60
21 l37 15 0 200 0 200 45 0 c57 0 106 20 127 52 14 21 24 84 19 126 -1 15
-110 17 -112 2z"/>
</g>
</svg>
